<?xml version="1.0" encoding="utf-8"?>
<!-- Svg Vector Icons : http://www.onlinewebfonts.com/icon -->
<!DOCTYPE svg PUBLIC "-//W3C//DTD SVG 1.1//EN" "http://www.w3.org/Graphics/SVG/1.1/DTD/svg11.dtd">
<svg version="1.1" xmlns="http://www.w3.org/2000/svg" xmlns:xlink="http://www.w3.org/1999/xlink" x="0px" y="0px" viewBox="0 0 256 256" enable-background="new 0 0 256 256" xml:space="preserve">
<metadata> Svg Vector Icons : http://www.onlinewebfonts.com/icon </metadata>
<g><g><path fill="#000000" d="M64.5,23c11.1,0,21.5,4.3,29.3,12.1c7.8,7.8,12.1,18.2,12.1,29.3v41.4H64.5c-11.1,0-21.5-4.3-29.3-12.1C27.3,86,23,75.5,23,64.5c0-11.1,4.3-21.5,12.1-29.3C43,27.3,53.4,23,64.5,23 M64.5,10C34.4,10,10,34.4,10,64.5S34.4,119,64.5,119h42.2c6.8,0,12.3-5.5,12.3-12.3V64.5C119,34.4,94.6,10,64.5,10L64.5,10L64.5,10L64.5,10z M64.6,150.8L64.6,150.8h40.6v40.6c0,10.8-4.2,21-11.9,28.7c-7.7,7.7-17.9,11.9-28.7,11.9c-10.8,0-21-4.2-28.7-11.9c-7.7-7.7-11.9-17.8-11.9-28.7c0-10.8,4.2-21,11.9-28.7C43.6,155,53.8,150.8,64.6,150.8 M64.5,137C34.4,137,10,161.4,10,191.5c0,30.1,24.4,54.5,54.5,54.5s54.5-24.4,54.5-54.5v-42.2c0-6.8-5.5-12.3-12.3-12.3H64.5L64.5,137L64.5,137L64.5,137z M192.1,22.8c11,0,21.3,4.3,29.1,12.1c7.8,7.8,12.1,18.1,12.1,29.1c0,11-4.3,21.3-12.1,29.1c-7.8,7.8-18.1,12-29.1,12h-41.2V63.9c0-11,4.3-21.3,12-29.1C170.7,27.1,181.1,22.8,192.1,22.8 M191.5,10C161.4,10,137,34.4,137,64.5v42.2c0,6.8,5.5,12.3,12.3,12.3h42.2c30.1,0,54.5-24.4,54.5-54.5S221.6,10,191.5,10L191.5,10L191.5,10L191.5,10z M191.5,150.6L191.5,150.6c10.9,0,21.2,4.3,28.9,12c7.7,7.7,12,18,12,28.9c0,10.9-4.2,21.2-12,28.9c-7.7,7.7-18,12-28.9,12c-10.9,0-21.2-4.2-28.9-12c-7.7-7.7-12-18-12-28.9v-40.9H191.5 M191.5,137h-42.2c-6.8,0-12.3,5.5-12.3,12.3v42.2c0,30.1,24.4,54.5,54.5,54.5c30.1,0,54.5-24.4,54.5-54.5C246,161.4,221.6,137,191.5,137L191.5,137L191.5,137L191.5,137z"/></g></g>
</svg>